<?xml version="1.0" encoding="iso-8859-1"?>
<!-- Uploaded to: SVG Repo, www.svgrepo.com, Generator: SVG Repo Mixer Tools -->
<svg fill="rgb(68, 88, 132)"  opacity="0.02" height="800px" width="800px" version="1.1" id="Capa_1" xmlns="http://www.w3.org/2000/svg" xmlns:xlink="http://www.w3.org/1999/xlink" viewBox="0 0 272.997 272.997" xml:space="preserve">




<path d="M266.894,18.732L254.166,6.005C250.294,2.133,245.146,0,239.67,0c-5.475,0-10.623,2.133-14.495,6.005
	c-3.157,3.157-5.133,7.167-5.764,11.505c-20.618,15.555-39.67,31.749-65.993,58.072c-32.788,32.787-61.397,65.84-80.559,93.07
	c-1.795,2.551-3.606,5.194-5.383,7.879l-0.965-0.965c-0.833-0.832-1.87-1.291-2.922-1.291c-1.395,0-2.683,0.811-3.445,2.167
	L48.31,197.5l-0.736-0.736c-0.735-0.735-1.876-1.174-3.052-1.174c-0.622,0-1.223,0.126-1.736,0.364l-0.126,0.07
	c-0.177,0.115-17.695,11.513-26.798,12.475c-1.821,0.192-3.171,2.398-3.635,3.834l-0.046,0.245
	c-0.025,0.419-2.683,42.012-11.631,54.423c-0.629,0.874-0.588,2.135,0.122,3.75l0.065,0.151l1.338,1.462l0.188,0.085
	c0.557,0.25,1.4,0.548,2.263,0.548c0.544,0,1.028-0.119,1.438-0.354c13.691-7.858,54.156-11.713,54.563-11.751l0.214-0.044
	c1.344-0.434,3.572-1.794,3.83-3.599c1.216-8.517,12.38-26.673,12.492-26.855l0.057-0.104c0.707-1.525,0.352-3.629-0.81-4.788
	l-0.748-0.748l21.057-11.833c1.189-0.669,1.967-1.745,2.133-2.951c0.166-1.206-0.292-2.451-1.257-3.416l-0.972-0.972
	c27.369-18.092,63.889-48.868,100.957-85.935c26.36-26.36,42.527-45.412,58.216-66.203c4.22-0.68,8.115-2.637,11.197-5.718
	C274.888,39.73,274.888,26.725,266.894,18.732z M45.388,243.386c-4.338,4.338-11.372,4.338-15.71,0
	c-4.338-4.339-4.338-11.372,0-15.711c4.338-4.338,11.372-4.338,15.71,0C49.727,232.014,49.727,239.047,45.388,243.386z"/>
</svg>